<?xml version="1.0" encoding="UTF-8" standalone="no"?>
<!DOCTYPE svg PUBLIC "-//W3C//DTD SVG 1.1//EN" "http://www.w3.org/Graphics/SVG/1.1/DTD/svg11.dtd">
<svg width="100%" height="100%" viewBox="0 0 1024 1024" version="1.1" xmlns="http://www.w3.org/2000/svg" xmlns:xlink="http://www.w3.org/1999/xlink" xml:space="preserve" xmlns:serif="http://www.serif.com/" style="fill-rule:evenodd;clip-rule:evenodd;stroke-linecap:round;stroke-linejoin:round;stroke-miterlimit:1.5;">
    <g transform="matrix(1,0,0,1,-2274.45,-0.0675736)">
        <g id="focus" transform="matrix(17.0667,0,0,17.0667,-35613.5,0.0675736)">
            <rect x="2220" y="0" width="60" height="60" style="fill:none;"/>
            <clipPath id="_clip1">
                <rect x="2220" y="0" width="60" height="60"/>
            </clipPath>
            <g clip-path="url(#_clip1)">
                <g transform="matrix(1.04143,0,0,1.04194,-94.8441,-2.93047)">
                    <g transform="matrix(1.875,0,0,1.875,-1941.62,0.9375)">
                        <path d="M2221,1L2231.53,11.5" style="fill:none;stroke:inherit;stroke-width:3.84px;"/>
                    </g>
                    <g transform="matrix(-1.47614e-16,2.41071,2.41071,1.47614e-16,2216.65,-5355.25)">
                        <path d="M2231.55,4.5L2231.55,11.5L2224.55,11.5" style="fill:none;stroke:inherit;stroke-width:2.99px;"/>
                    </g>
                </g>
                <g transform="matrix(6.12022e-17,-1,0.999508,6.12323e-17,2217.22,2282.75)">
                    <g transform="matrix(1.875,0,0,1.875,-1941.62,0.9375)">
                        <path d="M2221,1L2231.53,11.5" style="fill:none;stroke:inherit;stroke-width:4px;"/>
                    </g>
                    <g transform="matrix(-1.47614e-16,2.41071,2.41071,1.47614e-16,2216.65,-5355.25)">
                        <path d="M2231.55,4.5L2231.55,11.5L2224.55,11.5" style="fill:none;stroke:inherit;stroke-width:3.11px;"/>
                    </g>
                </g>
                <g transform="matrix(-0.999508,-1.22465e-16,1.22404e-16,-1,4501.66,62.7515)">
                    <g transform="matrix(1.875,0,0,1.875,-1941.62,0.9375)">
                        <path d="M2221,1L2231.53,11.5" style="fill:none;stroke:inherit;stroke-width:4px;"/>
                    </g>
                    <g transform="matrix(-1.47614e-16,2.41071,2.41071,1.47614e-16,2216.65,-5355.25)">
                        <path d="M2231.55,4.5L2231.55,11.5L2224.55,11.5" style="fill:none;stroke:inherit;stroke-width:3.11px;"/>
                    </g>
                </g>
                <g transform="matrix(-1.83607e-16,1,-0.999508,-1.83697e-16,2282.75,-2222.75)">
                    <g transform="matrix(1.875,0,0,1.875,-1941.62,0.9375)">
                        <path d="M2221,1L2231.53,11.5" style="fill:none;stroke:inherit;stroke-width:4px;"/>
                    </g>
                    <g transform="matrix(-1.47614e-16,2.41071,2.41071,1.47614e-16,2216.65,-5355.25)">
                        <path d="M2231.55,4.5L2231.55,11.5L2224.55,11.5" style="fill:none;stroke:inherit;stroke-width:3.11px;"/>
                    </g>
                </g>
            </g>
        </g>
    </g>
</svg>
